<svg fill="none" xmlns="http://www.w3.org/2000/svg" viewBox="0 0 319 262">
  <path d="M88.6 222.419l-1.588-4.073-1.587 4.073c-4.567 11.715-9.963 21.08-15.869 27.487-5.904 6.406-12.188 9.727-18.592 9.727-6.4 0-12.682-3.319-18.584-9.719-5.904-6.403-11.3-15.761-15.865-27.468-9.128-23.403-14.811-55.851-14.811-91.777 0-35.927 5.683-68.374 14.81-91.778 4.567-11.707 9.962-21.065 15.866-27.467 5.902-6.4 12.184-9.72 18.584-9.72 6.404 0 12.688 3.322 18.592 9.727 5.906 6.407 11.302 15.772 15.869 27.487l1.587 4.073 1.588-4.073c4.567-11.715 9.963-21.08 15.869-27.487 5.904-6.405 12.188-9.727 18.591-9.727 6.404 0 12.688 3.322 18.592 9.727 5.906 6.407 11.302 15.772 15.869 27.487l1.587 4.073 1.588-4.073c4.567-11.715 9.963-21.08 15.869-27.487 5.904-6.405 12.188-9.727 18.591-9.727 6.404 0 12.688 3.322 18.592 9.727 5.906 6.407 11.302 15.772 15.869 27.487l1.587 4.073 1.588-4.073c4.567-11.715 9.963-21.08 15.869-27.487 5.904-6.405 12.188-9.727 18.591-9.727 6.401 0 12.683 3.32 18.585 9.72 5.904 6.402 11.299 15.76 15.865 27.467 9.128 23.404 14.811 55.851 14.811 91.778 0 35.926-5.683 68.374-14.811 91.777-4.566 11.707-9.961 21.065-15.865 27.468-5.902 6.4-12.184 9.719-18.585 9.719-6.403 0-12.687-3.321-18.591-9.727-5.906-6.407-11.302-15.772-15.869-27.487l-1.588-4.073-1.587 4.073c-4.567 11.715-9.963 21.08-15.869 27.487-5.904 6.406-12.188 9.727-18.592 9.727-6.403 0-12.687-3.321-18.591-9.727-5.906-6.407-11.302-15.772-15.869-27.487l-1.588-4.073-1.587 4.073c-4.567 11.715-9.963 21.08-15.869 27.487-5.904 6.406-12.188 9.727-18.592 9.727-6.403 0-12.687-3.321-18.591-9.727-5.906-6.407-11.302-15.772-15.869-27.487z" fill="#0FA958" stroke="#000" stroke-width="3.408"/>
</svg>
